<?xml version="1.0" encoding="UTF-8" standalone="no"?>
<!-- Created with Inkscape (http://www.inkscape.org/) -->

<svg
   xmlns:dc="http://purl.org/dc/elements/1.1/"
   xmlns:cc="http://creativecommons.org/ns#"
   xmlns:rdf="http://www.w3.org/1999/02/22-rdf-syntax-ns#"
   xmlns:svg="http://www.w3.org/2000/svg"
   xmlns="http://www.w3.org/2000/svg"
   xmlns:sodipodi="http://sodipodi.sourceforge.net/DTD/sodipodi-0.dtd"
   xmlns:inkscape="http://www.inkscape.org/namespaces/inkscape"
   width="150"
   height="200"
   viewBox="0 0 39.687499 52.916668"
   version="1.1"
   id="svg4497"
   inkscape:version="0.92.0 r15299"
   sodipodi:docname="env.svg">
  <defs
     id="defs4491" />
  <sodipodi:namedview
     id="base"
     pagecolor="#000000"
     bordercolor="#666666"
     borderopacity="1.0"
     inkscape:pageopacity="0"
     inkscape:pageshadow="2"
     inkscape:zoom="2.8"
     inkscape:cx="201.61371"
     inkscape:cy="81.234977"
     inkscape:document-units="mm"
     inkscape:current-layer="layer1"
     showgrid="false"
     units="px"
     inkscape:window-width="1920"
     inkscape:window-height="1017"
     inkscape:window-x="-8"
     inkscape:window-y="-8"
     inkscape:window-maximized="1" />
  <metadata
     id="metadata4494">
    <rdf:RDF>
      <cc:Work
         rdf:about="">
        <dc:format>image/svg+xml</dc:format>
        <dc:type
           rdf:resource="http://purl.org/dc/dcmitype/StillImage" />
        <dc:title></dc:title>
      </cc:Work>
    </rdf:RDF>
  </metadata>
  <g
     inkscape:label="Ebene 1"
     inkscape:groupmode="layer"
     id="layer1"
     transform="translate(0,-244.08329)">
    <path
       d="m 20.251926,292.09333 c -5.655418,0 -10.179754,-4.24216 -10.179754,-9.54486 0,-2.57562 1.131084,-4.84819 2.908512,-6.66625 v -22.27134 c 0,-3.63613 3.231645,-6.66626 7.109674,-6.66626 h 0.322976 c 3.87799,0 7.109638,3.03013 7.109638,6.66626 v 22.27134 c 1.777428,1.81806 2.908512,4.09063 2.908512,6.66625 0,5.3027 -4.524337,9.54486 -10.179757,9.54486 z m -0.161687,-42.72461 c -2.423772,0 -4.362766,1.9696 -4.362766,4.09067 v 23.48336 l -0.48474,0.30284 c -1.615823,1.36355 -2.58534,3.18162 -2.58534,5.3027 0,3.93914 3.39325,7.12076 7.594414,7.12076 4.201162,0 7.594415,-3.18162 7.594415,-7.12076 0,-1.96959 -0.80791,-3.93915 -2.585342,-5.3027 l -0.484739,-0.30284 v -23.33187 c 0,-2.27256 -2.100562,-4.09067 -4.362729,-4.09067 -0.161685,-0.1516 -0.322974,-0.1516 -0.322974,-0.1516 z m 2.100561,28.02854 v -7.42377 c 0,-1.06055 -0.807909,-1.81807 -1.938993,-1.81807 -1.131085,0 -1.938995,0.75752 -1.938995,1.81807 v 7.57531 c -2.262169,0.75752 -3.87799,2.87859 -3.87799,5.15115 0,3.03014 2.58534,5.45424 5.816985,5.45424 3.231684,0 5.817028,-2.4241 5.817028,-5.45424 0,-2.57557 -1.615866,-4.54516 -3.878035,-5.30269 z"
       id="env"
       style="fill:#35bbed;fill-opacity:1;stroke-width:1.56463397"
       inkscape:connector-curvature="0" />
  </g>
</svg>
